<?xml version="1.0" encoding="UTF-8" standalone="no"?>
<svg
   xmlns:dc="http://purl.org/dc/elements/1.1/"
   xmlns:cc="http://creativecommons.org/ns#"
   xmlns:rdf="http://www.w3.org/1999/02/22-rdf-syntax-ns#"
   xmlns:svg="http://www.w3.org/2000/svg"
   xmlns="http://www.w3.org/2000/svg"
   xmlns:xlink="http://www.w3.org/1999/xlink"
   xmlns:sodipodi="http://sodipodi.sourceforge.net/DTD/sodipodi-0.dtd"
   xmlns:inkscape="http://www.inkscape.org/namespaces/inkscape"
   width="1024"
   height="1024"
   viewBox="0 0 1024 1024"
   version="1.1"
   id="svg861"
   sodipodi:docname="thing.svg"
   inkscape:version="1.0.1 (c497b03c, 2020-09-10)"
   inkscape:export-filename="/Users/skylercalaman/thing.png"
   inkscape:export-xdpi="96"
   inkscape:export-ydpi="96">
  <metadata
     id="metadata867">
    <rdf:RDF>
      <cc:Work
         rdf:about="">
        <dc:format>image/svg+xml</dc:format>
        <dc:type
           rdf:resource="http://purl.org/dc/dcmitype/StillImage" />
      </cc:Work>
    </rdf:RDF>
  </metadata>
  <defs
     id="defs865">
    <inkscape:path-effect
       effect="powerclip"
       id="path-effect937"
       is_visible="true"
       lpeversion="1"
       inverse="true"
       flatten="false"
       hide_clip="false"
       message="Use fill-rule evenodd on &lt;b&gt;fill and stroke&lt;/b&gt; dialog if no flatten result after convert clip to paths." />
    <inkscape:path-effect
       effect="powerclip"
       id="path-effect921"
       is_visible="true"
       lpeversion="1"
       inverse="true"
       flatten="false"
       hide_clip="false"
       message="Use fill-rule evenodd on &lt;b&gt;fill and stroke&lt;/b&gt; dialog if no flatten result after convert clip to paths." />
    <inkscape:path-effect
       effect="powerclip"
       id="path-effect931"
       is_visible="true"
       lpeversion="1"
       inverse="true"
       flatten="false"
       hide_clip="false"
       message="Use fill-rule evenodd on &lt;b&gt;fill and stroke&lt;/b&gt; dialog if no flatten result after convert clip to paths." />
    <inkscape:path-effect
       effect="powerclip"
       id="path-effect918"
       is_visible="true"
       lpeversion="1"
       inverse="true"
       flatten="false"
       hide_clip="false"
       message="Use fill-rule evenodd on &lt;b&gt;fill and stroke&lt;/b&gt; dialog if no flatten result after convert clip to paths." />
    <inkscape:path-effect
       effect="powerclip"
       id="path-effect1668"
       is_visible="true"
       lpeversion="1"
       inverse="true"
       flatten="false"
       hide_clip="false"
       message="Use fill-rule evenodd on &lt;b&gt;fill and stroke&lt;/b&gt; dialog if no flatten result after convert clip to paths." />
    <inkscape:path-effect
       effect="powerclip"
       id="path-effect1639"
       is_visible="true"
       lpeversion="1"
       inverse="true"
       flatten="false"
       hide_clip="false"
       message="Use fill-rule evenodd on &lt;b&gt;fill and stroke&lt;/b&gt; dialog if no flatten result after convert clip to paths." />
    <inkscape:path-effect
       effect="powerclip"
       id="path-effect1547"
       is_visible="true"
       lpeversion="1"
       inverse="true"
       flatten="false"
       hide_clip="false"
       message="Use fill-rule evenodd on &lt;b&gt;fill and stroke&lt;/b&gt; dialog if no flatten result after convert clip to paths." />
    <linearGradient
       inkscape:collect="always"
       id="linearGradient1444">
      <stop
         style="stop-color:#004ca5;stop-opacity:1"
         offset="0"
         id="stop1440" />
      <stop
         style="stop-color:#55b1eb;stop-opacity:1"
         offset="1"
         id="stop1442" />
    </linearGradient>
    <linearGradient
       inkscape:collect="always"
       xlink:href="#linearGradient1444"
       id="linearGradient1446"
       x1="512"
       y1="1024"
       x2="512"
       y2="0"
       gradientUnits="userSpaceOnUse" />
    <clipPath
       clipPathUnits="userSpaceOnUse"
       id="clipPath1664">
      <path
         style="color:#000000;font-style:normal;font-variant:normal;font-weight:normal;font-stretch:normal;font-size:medium;line-height:normal;font-family:sans-serif;font-variant-ligatures:normal;font-variant-position:normal;font-variant-caps:normal;font-variant-numeric:normal;font-variant-alternates:normal;font-variant-east-asian:normal;font-feature-settings:normal;font-variation-settings:normal;text-indent:0;text-align:start;text-decoration:none;text-decoration-line:none;text-decoration-style:solid;text-decoration-color:#000000;letter-spacing:normal;word-spacing:normal;text-transform:none;writing-mode:lr-tb;direction:ltr;text-orientation:mixed;dominant-baseline:auto;baseline-shift:baseline;text-anchor:start;white-space:normal;shape-padding:0;shape-margin:0;inline-size:0;clip-rule:nonzero;display:none;overflow:visible;visibility:visible;opacity:1;isolation:auto;mix-blend-mode:normal;color-interpolation:sRGB;color-interpolation-filters:linearRGB;solid-color:#000000;solid-opacity:1;vector-effect:none;fill:#ffffff;fill-opacity:1;fill-rule:nonzero;stroke:none;stroke-width:50;stroke-linecap:round;stroke-linejoin:miter;stroke-miterlimit:4;stroke-dasharray:none;stroke-dashoffset:0;stroke-opacity:1;color-rendering:auto;image-rendering:auto;shape-rendering:auto;text-rendering:auto;enable-background:accumulate;stop-color:#000000;stop-opacity:1"
         d="m 631,531 c 13.80712,0 25,-11.19288 25,-25 0,-13.80712 -11.19288,-25 -25,-25 h -50 v -50 c 0,-13.80712 -11.19288,-25 -25,-25 -13.80712,0 -25,11.19288 -25,25 v 50 h -50 c -13.80712,0 -25,11.19288 -25,25 0,13.80712 11.19288,25 25,25 h 50 v 50 c 0,13.80712 11.19288,25 25,25 13.80712,0 25,-11.19288 25,-25 v -50 z"
         id="path1666"
         sodipodi:nodetypes="ssscssscssscssscs" />
      <path
         id="lpe_path-effect1668"
         style="color:#000000;font-style:normal;font-variant:normal;font-weight:normal;font-stretch:normal;font-size:medium;line-height:normal;font-family:sans-serif;font-variant-ligatures:normal;font-variant-position:normal;font-variant-caps:normal;font-variant-numeric:normal;font-variant-alternates:normal;font-variant-east-asian:normal;font-feature-settings:normal;font-variation-settings:normal;text-indent:0;text-align:start;text-decoration:none;text-decoration-line:none;text-decoration-style:solid;text-decoration-color:#000000;letter-spacing:normal;word-spacing:normal;text-transform:none;writing-mode:lr-tb;direction:ltr;text-orientation:mixed;dominant-baseline:auto;baseline-shift:baseline;text-anchor:start;white-space:normal;shape-padding:0;shape-margin:0;inline-size:0;clip-rule:nonzero;display:inline;overflow:visible;visibility:visible;opacity:1;isolation:auto;mix-blend-mode:normal;color-interpolation:sRGB;color-interpolation-filters:linearRGB;solid-color:#000000;solid-opacity:1;vector-effect:none;fill:#ffffff;fill-opacity:1;fill-rule:nonzero;stroke:none;stroke-width:50;stroke-linecap:round;stroke-linejoin:miter;stroke-miterlimit:4;stroke-dasharray:none;stroke-dashoffset:0;stroke-opacity:1;color-rendering:auto;image-rendering:auto;shape-rendering:auto;text-rendering:auto;enable-background:accumulate;stop-color:#000000;stop-opacity:1"
         class="powerclip"
         d="M 345,220 H 767 V 792 H 345 Z m 286,311 c 13.80712,0 25,-11.19288 25,-25 0,-13.80712 -11.19288,-25 -25,-25 h -50 v -50 c 0,-13.80712 -11.19288,-25 -25,-25 -13.80712,0 -25,11.19288 -25,25 v 50 h -50 c -13.80712,0 -25,11.19288 -25,25 0,13.80712 11.19288,25 25,25 h 50 v 50 c 0,13.80712 11.19288,25 25,25 13.80712,0 25,-11.19288 25,-25 v -50 z" />
    </clipPath>
    <filter
       style="color-interpolation-filters:sRGB;"
       inkscape:label="Drop Shadow"
       id="filter2162">
      <feFlood
         flood-opacity="0.454902"
         flood-color="rgb(0,0,0)"
         result="flood"
         id="feFlood2152" />
      <feComposite
         in="flood"
         in2="SourceGraphic"
         operator="in"
         result="composite1"
         id="feComposite2154" />
      <feGaussianBlur
         in="composite1"
         stdDeviation="10"
         result="blur"
         id="feGaussianBlur2156" />
      <feOffset
         dx="-2.05669e-14"
         dy="12"
         result="offset"
         id="feOffset2158" />
      <feComposite
         in="SourceGraphic"
         in2="offset"
         operator="over"
         result="composite2"
         id="feComposite2160" />
    </filter>
    <clipPath
       clipPathUnits="userSpaceOnUse"
       id="clipath_lpe_path-effect921">
      <path
         style="color:#000000;font-style:normal;font-variant:normal;font-weight:normal;font-stretch:normal;font-size:medium;line-height:normal;font-family:sans-serif;font-variant-ligatures:normal;font-variant-position:normal;font-variant-caps:normal;font-variant-numeric:normal;font-variant-alternates:normal;font-variant-east-asian:normal;font-feature-settings:normal;font-variation-settings:normal;text-indent:0;text-align:start;text-decoration:none;text-decoration-line:none;text-decoration-style:solid;text-decoration-color:#000000;letter-spacing:normal;word-spacing:normal;text-transform:none;writing-mode:lr-tb;direction:ltr;text-orientation:mixed;dominant-baseline:auto;baseline-shift:baseline;text-anchor:start;white-space:normal;shape-padding:0;shape-margin:0;inline-size:0;clip-rule:nonzero;display:none;overflow:visible;visibility:visible;opacity:1;isolation:auto;mix-blend-mode:normal;color-interpolation:sRGB;color-interpolation-filters:linearRGB;solid-color:#000000;solid-opacity:1;vector-effect:none;fill:#ffffff;fill-opacity:1;fill-rule:nonzero;stroke:none;stroke-width:50;stroke-linecap:round;stroke-linejoin:miter;stroke-miterlimit:4;stroke-dasharray:none;stroke-dashoffset:0;stroke-opacity:1;color-rendering:auto;image-rendering:auto;shape-rendering:auto;text-rendering:auto;enable-background:accumulate;stop-color:#000000;stop-opacity:1"
         d="m 631,531 c 13.80712,0 25,-11.19288 25,-25 0,-13.80712 -11.19288,-25 -25,-25 h -50 v -50 c 0,-13.80712 -11.19288,-25 -25,-25 -13.80712,0 -25,11.19288 -25,25 v 50 h -50 c -13.80712,0 -25,11.19288 -25,25 0,13.80712 11.19288,25 25,25 h 50 v 50 c 0,13.80712 11.19288,25 25,25 13.80712,0 25,-11.19288 25,-25 v -50 z"
         id="path923"
         sodipodi:nodetypes="ssscssscssscssscs" />
      <path
         id="lpe_path-effect921"
         style="color:#000000;font-style:normal;font-variant:normal;font-weight:normal;font-stretch:normal;font-size:medium;line-height:normal;font-family:sans-serif;font-variant-ligatures:normal;font-variant-position:normal;font-variant-caps:normal;font-variant-numeric:normal;font-variant-alternates:normal;font-variant-east-asian:normal;font-feature-settings:normal;font-variation-settings:normal;text-indent:0;text-align:start;text-decoration:none;text-decoration-line:none;text-decoration-style:solid;text-decoration-color:#000000;letter-spacing:normal;word-spacing:normal;text-transform:none;writing-mode:lr-tb;direction:ltr;text-orientation:mixed;dominant-baseline:auto;baseline-shift:baseline;text-anchor:start;white-space:normal;shape-padding:0;shape-margin:0;inline-size:0;clip-rule:nonzero;display:inline;overflow:visible;visibility:visible;opacity:1;isolation:auto;mix-blend-mode:normal;color-interpolation:sRGB;color-interpolation-filters:linearRGB;solid-color:#000000;solid-opacity:1;vector-effect:none;fill:#ffffff;fill-opacity:1;fill-rule:nonzero;stroke:none;stroke-width:50;stroke-linecap:round;stroke-linejoin:miter;stroke-miterlimit:4;stroke-dasharray:none;stroke-dashoffset:0;stroke-opacity:1;color-rendering:auto;image-rendering:auto;shape-rendering:auto;text-rendering:auto;enable-background:accumulate;stop-color:#000000;stop-opacity:1"
         class="powerclip"
         d="M 345,220 H 767 V 792 H 345 Z m 286,311 c 13.80712,0 25,-11.19288 25,-25 0,-13.80712 -11.19288,-25 -25,-25 h -50 v -50 c 0,-13.80712 -11.19288,-25 -25,-25 -13.80712,0 -25,11.19288 -25,25 v 50 h -50 c -13.80712,0 -25,11.19288 -25,25 0,13.80712 11.19288,25 25,25 h 50 v 50 c 0,13.80712 11.19288,25 25,25 13.80712,0 25,-11.19288 25,-25 v -50 z" />
    </clipPath>
    <clipPath
       clipPathUnits="userSpaceOnUse"
       id="clipPath933">
      <path
         style="color:#000000;font-style:normal;font-variant:normal;font-weight:normal;font-stretch:normal;font-size:medium;line-height:normal;font-family:sans-serif;font-variant-ligatures:normal;font-variant-position:normal;font-variant-caps:normal;font-variant-numeric:normal;font-variant-alternates:normal;font-variant-east-asian:normal;font-feature-settings:normal;font-variation-settings:normal;text-indent:0;text-align:start;text-decoration:none;text-decoration-line:none;text-decoration-style:solid;text-decoration-color:#000000;letter-spacing:normal;word-spacing:normal;text-transform:none;writing-mode:lr-tb;direction:ltr;text-orientation:mixed;dominant-baseline:auto;baseline-shift:baseline;text-anchor:start;white-space:normal;shape-padding:0;shape-margin:0;inline-size:0;clip-rule:nonzero;display:none;overflow:visible;visibility:visible;opacity:1;isolation:auto;mix-blend-mode:normal;color-interpolation:sRGB;color-interpolation-filters:linearRGB;solid-color:#000000;solid-opacity:1;vector-effect:none;fill:#000000;fill-opacity:1;fill-rule:nonzero;stroke:none;stroke-width:40;stroke-linecap:butt;stroke-linejoin:miter;stroke-miterlimit:4;stroke-dasharray:none;stroke-dashoffset:0;stroke-opacity:1;color-rendering:auto;image-rendering:auto;shape-rendering:auto;text-rendering:auto;enable-background:accumulate;stop-color:#000000;stop-opacity:1"
         d="m 208.27894,383.09394 c -25.53722,9.80282 -38.56344,39.0602 -28.76063,64.59742 l 179.90071,468.65736 c 9.80282,25.53723 39.06021,38.56346 64.59742,28.76064 L 752.63675,818.96384 c 25.53722,-9.80282 38.56344,-39.0602 28.76063,-64.59742 L 601.49667,285.70905 c -9.80282,-25.53722 -39.06021,-38.56345 -64.59742,-28.76063 z"
         id="path935"
         sodipodi:nodetypes="sssssssss" />
      <path
         id="lpe_path-effect937"
         style="color:#000000;font-style:normal;font-variant:normal;font-weight:normal;font-stretch:normal;font-size:medium;line-height:normal;font-family:sans-serif;font-variant-ligatures:normal;font-variant-position:normal;font-variant-caps:normal;font-variant-numeric:normal;font-variant-alternates:normal;font-variant-east-asian:normal;font-feature-settings:normal;font-variation-settings:normal;text-indent:0;text-align:start;text-decoration:none;text-decoration-line:none;text-decoration-style:solid;text-decoration-color:#000000;letter-spacing:normal;word-spacing:normal;text-transform:none;writing-mode:lr-tb;direction:ltr;text-orientation:mixed;dominant-baseline:auto;baseline-shift:baseline;text-anchor:start;white-space:normal;shape-padding:0;shape-margin:0;inline-size:0;clip-rule:nonzero;display:block;overflow:visible;visibility:visible;opacity:1;isolation:auto;mix-blend-mode:normal;color-interpolation:sRGB;color-interpolation-filters:linearRGB;solid-color:#000000;solid-opacity:1;vector-effect:none;fill:#000000;fill-opacity:1;fill-rule:nonzero;stroke:none;stroke-width:40;stroke-linecap:butt;stroke-linejoin:miter;stroke-miterlimit:4;stroke-dasharray:none;stroke-dashoffset:0;stroke-opacity:1;color-rendering:auto;image-rendering:auto;shape-rendering:auto;text-rendering:auto;enable-background:accumulate;stop-color:#000000;stop-opacity:1"
         class="powerclip"
         d="M 295,220 H 767 V 792 H 295 Z m -86.72106,163.09394 c -25.53722,9.80282 -38.56344,39.0602 -28.76063,64.59742 l 179.90071,468.65736 c 9.80282,25.53723 39.06021,38.56346 64.59742,28.76064 L 752.63675,818.96384 c 25.53722,-9.80282 38.56344,-39.0602 28.76063,-64.59742 L 601.49667,285.70905 c -9.80282,-25.53722 -39.06021,-38.56345 -64.59742,-28.76063 z" />
    </clipPath>
  </defs>
  <sodipodi:namedview
     pagecolor="#ffffff"
     bordercolor="#666666"
     borderopacity="1"
     objecttolerance="10"
     gridtolerance="10"
     guidetolerance="10"
     inkscape:pageopacity="0"
     inkscape:pageshadow="2"
     inkscape:window-width="1680"
     inkscape:window-height="1050"
     id="namedview863"
     showgrid="false"
     inkscape:zoom="0.50817616"
     inkscape:cx="904.63999"
     inkscape:cy="420.24773"
     inkscape:window-x="0"
     inkscape:window-y="0"
     inkscape:window-maximized="0"
     inkscape:current-layer="svg861"
     inkscape:document-rotation="0" />
  <rect
     style="fill:url(#linearGradient1446);stroke:none;stroke-width:4.99782;fill-opacity:1;filter:url(#filter2162)"
     id="rect1430"
     width="824"
     height="824"
     x="100"
     y="100"
     ry="186.30539" />
  <g
     id="g919"
     transform="rotate(21,664.64996,540.49946)"
     clip-path="url(#clipPath933)"
     inkscape:path-effect="#path-effect937"
     style="opacity:0.5">
    <path
       style="fill:#ffffff;fill-opacity:0.5;stroke:none;stroke-width:4.6998"
       id="path891"
       width="412"
       height="562"
       x="350"
       y="225"
       ry="30"
       clip-path="url(#clipath_lpe_path-effect921)"
       inkscape:path-effect="#path-effect921"
       d="m 380,225 h 352 c 16.62,0 30,13.38 30,30 v 502 c 0,16.62 -13.38,30 -30,30 H 380 c -16.62,0 -30,-13.38 -30,-30 V 255 c 0,-16.62 13.38,-30 30,-30 z"
       sodipodi:type="rect" />
    <g
       id="g917">
      <g
         id="g897">
        <path
           id="path893"
           style="fill:#ffffff;fill-opacity:0.5;stroke:none;stroke-width:5.11245"
           d="m 320,300 h 30 v 50 h -30 c -11.08,0 -20,-8.92 -20,-20 v -10 c 0,-11.08 8.92,-20 20,-20 z"
           sodipodi:nodetypes="sccssss"
           inkscape:original-d="m 320,300 h 30 v 50 h -30 c -11.08,0 -20,-8.92 -20,-20 v -10 c 0,-11.08 8.92,-20 20,-20 z" />
        <path
           id="path895"
           style="fill:#ffffff;fill-opacity:0.35;stroke:none;stroke-width:5.11245"
           d="m 350,300 h 30 c 11.08,0 20,8.92 20,20 v 10 c 0,11.08 -8.92,20 -20,20 h -30 z"
           sodipodi:nodetypes="csssscc"
           inkscape:original-d="m 350,300 h 30 c 11.08,0 20,8.92 20,20 v 10 c 0,11.08 -8.92,20 -20,20 h -30 z" />
      </g>
      <g
         id="g903"
         transform="translate(0,125)">
        <path
           id="path899"
           style="fill:#ffffff;fill-opacity:0.5;stroke:none;stroke-width:5.11245"
           d="m 320,300 h 30 v 50 h -30 c -11.08,0 -20,-8.92 -20,-20 v -10 c 0,-11.08 8.92,-20 20,-20 z"
           sodipodi:nodetypes="sccssss"
           inkscape:original-d="m 320,300 h 30 v 50 h -30 c -11.08,0 -20,-8.92 -20,-20 v -10 c 0,-11.08 8.92,-20 20,-20 z" />
        <path
           id="path901"
           style="fill:#ffffff;fill-opacity:0.35;stroke:none;stroke-width:5.11245"
           d="m 350,300 h 30 c 11.08,0 20,8.92 20,20 v 10 c 0,11.08 -8.92,20 -20,20 h -30 z"
           sodipodi:nodetypes="csssscc"
           inkscape:original-d="m 350,300 h 30 c 11.08,0 20,8.92 20,20 v 10 c 0,11.08 -8.92,20 -20,20 h -30 z" />
      </g>
      <g
         id="g909"
         transform="translate(0,249)">
        <path
           id="path905"
           style="fill:#ffffff;fill-opacity:0.5;stroke:none;stroke-width:5.11245"
           d="m 320,300 h 30 v 50 h -30 c -11.08,0 -20,-8.92 -20,-20 v -10 c 0,-11.08 8.92,-20 20,-20 z"
           sodipodi:nodetypes="sccssss"
           inkscape:original-d="m 320,300 h 30 v 50 h -30 c -11.08,0 -20,-8.92 -20,-20 v -10 c 0,-11.08 8.92,-20 20,-20 z" />
        <path
           id="path907"
           style="fill:#ffffff;fill-opacity:0.35;stroke:none;stroke-width:5.11245"
           d="m 350,300 h 30 c 11.08,0 20,8.92 20,20 v 10 c 0,11.08 -8.92,20 -20,20 h -30 z"
           sodipodi:nodetypes="csssscc"
           inkscape:original-d="m 350,300 h 30 c 11.08,0 20,8.92 20,20 v 10 c 0,11.08 -8.92,20 -20,20 h -30 z" />
      </g>
      <g
         id="g915"
         transform="translate(0,374)">
        <path
           id="path911"
           style="fill:#ffffff;fill-opacity:0.5;stroke:none;stroke-width:5.11245"
           d="m 320,300 h 30 v 50 h -30 c -11.08,0 -20,-8.92 -20,-20 v -10 c 0,-11.08 8.92,-20 20,-20 z"
           sodipodi:nodetypes="sccssss"
           inkscape:original-d="m 320,300 h 30 v 50 h -30 c -11.08,0 -20,-8.92 -20,-20 v -10 c 0,-11.08 8.92,-20 20,-20 z" />
        <path
           id="path913"
           style="fill:#ffffff;fill-opacity:0.35;stroke:none;stroke-width:5.11245"
           d="m 350,300 h 30 c 11.08,0 20,8.92 20,20 v 10 c 0,11.08 -8.92,20 -20,20 h -30 z"
           sodipodi:nodetypes="csssscc"
           inkscape:original-d="m 350,300 h 30 c 11.08,0 20,8.92 20,20 v 10 c 0,11.08 -8.92,20 -20,20 h -30 z" />
      </g>
    </g>
  </g>
  <g
     id="g1508"
     transform="translate(-85,25)">
    <path
       style="fill:#ffffff;fill-opacity:0.5;stroke:none;stroke-width:4.6998"
       id="rect1460"
       width="412"
       height="562"
       x="350"
       y="225"
       ry="30"
       clip-path="url(#clipPath1664)"
       inkscape:path-effect="#path-effect1668"
       d="m 380,225 h 352 c 16.62,0 30,13.38 30,30 v 502 c 0,16.62 -13.38,30 -30,30 H 380 c -16.62,0 -30,-13.38 -30,-30 V 255 c 0,-16.62 13.38,-30 30,-30 z"
       sodipodi:type="rect" />
    <g
       id="g1500">
      <g
         id="g1557">
        <path
           id="rect1480"
           style="fill:#ffffff;fill-opacity:0.5;stroke:none;stroke-width:5.11245"
           d="m 320,300 h 30 v 50 h -30 c -11.08,0 -20,-8.92 -20,-20 v -10 c 0,-11.08 8.92,-20 20,-20 z"
           sodipodi:nodetypes="sccssss" />
        <path
           id="path1553"
           style="fill:#ffffff;fill-opacity:0.34999999;stroke:none;stroke-width:5.11245"
           d="m 350,300 h 30 c 11.08,0 20,8.92 20,20 v 10 c 0,11.08 -8.92,20 -20,20 h -30 z"
           sodipodi:nodetypes="csssscc" />
      </g>
      <g
         id="g1563"
         transform="translate(0,125)">
        <path
           id="path1559"
           style="fill:#ffffff;fill-opacity:0.5;stroke:none;stroke-width:5.11245"
           d="m 320,300 h 30 v 50 h -30 c -11.08,0 -20,-8.92 -20,-20 v -10 c 0,-11.08 8.92,-20 20,-20 z"
           sodipodi:nodetypes="sccssss" />
        <path
           id="path1561"
           style="fill:#ffffff;fill-opacity:0.34999999;stroke:none;stroke-width:5.11245"
           d="m 350,300 h 30 c 11.08,0 20,8.92 20,20 v 10 c 0,11.08 -8.92,20 -20,20 h -30 z"
           sodipodi:nodetypes="csssscc" />
      </g>
      <g
         id="g1569"
         transform="translate(0,249)">
        <path
           id="path1565"
           style="fill:#ffffff;fill-opacity:0.5;stroke:none;stroke-width:5.11245"
           d="m 320,300 h 30 v 50 h -30 c -11.08,0 -20,-8.92 -20,-20 v -10 c 0,-11.08 8.92,-20 20,-20 z"
           sodipodi:nodetypes="sccssss" />
        <path
           id="path1567"
           style="fill:#ffffff;fill-opacity:0.34999999;stroke:none;stroke-width:5.11245"
           d="m 350,300 h 30 c 11.08,0 20,8.92 20,20 v 10 c 0,11.08 -8.92,20 -20,20 h -30 z"
           sodipodi:nodetypes="csssscc" />
      </g>
      <g
         id="g1575"
         transform="translate(0,374)">
        <path
           id="path1571"
           style="fill:#ffffff;fill-opacity:0.5;stroke:none;stroke-width:5.11245"
           d="m 320,300 h 30 v 50 h -30 c -11.08,0 -20,-8.92 -20,-20 v -10 c 0,-11.08 8.92,-20 20,-20 z"
           sodipodi:nodetypes="sccssss" />
        <path
           id="path1573"
           style="fill:#ffffff;fill-opacity:0.34999999;stroke:none;stroke-width:5.11245"
           d="m 350,300 h 30 c 11.08,0 20,8.92 20,20 v 10 c 0,11.08 -8.92,20 -20,20 h -30 z"
           sodipodi:nodetypes="csssscc" />
      </g>
    </g>
  </g>
  <g
     id="g1536"
     transform="translate(-65,25)" />
</svg>
